<svg xmlns="http://www.w3.org/2000/svg" version="1.1" xmlns:xlink="http://www.w3.org/1999/xlink" xmlns:svgjs="http://svgjs.dev/svgjs" width="1000" height="1000" viewBox="0 0 1000 1000"><rect width="1000" height="1000" fill="#000000"></rect><g transform="matrix(0.7,0,0,0.7,149.57575768385374,432.8773935828184)"><svg viewBox="0 0 396 76" data-background-color="#000000" preserveAspectRatio="xMidYMid meet" height="191" width="1000" xmlns="http://www.w3.org/2000/svg" xmlns:xlink="http://www.w3.org/1999/xlink"><g id="tight-bounds" transform="matrix(1,0,0,1,0.24000000982096026,0.15495951911591987)"><svg viewBox="0 0 395.52 75.69008096176817" height="75.69008096176817" width="395.52"><g><svg viewBox="0 0 446.7163652067762 85.48745410964727" height="75.69008096176817" width="395.52"><g><rect width="5.578398577902049" height="62.16707046323842" x="410.12313763848704" y="11.660191823204428" fill="#ffffff" opacity="1" stroke-width="0" stroke="transparent" fill-opacity="1" class="rect-o-0" data-fill-palette-color="primary" rx="1%" id="o-0" data-palette-color="#89939e"></rect></g><g transform="matrix(1,0,0,1,0,11.814836277093079)"><svg viewBox="0 0 395.52 61.857781555461116" height="61.857781555461116" width="395.52"><g><svg viewBox="0 0 395.52 61.857781555461116" height="61.857781555461116" width="395.52" id="textblock"><g><svg viewBox="0 0 395.52 61.857781555461116" height="61.857781555461116" width="395.52"><g transform="matrix(1,0,0,1,0,0)"><svg width="395.52" viewBox="1.7000000476837158 -35.79999923706055 235.27999877929688 36.79999923706055" height="61.857781555461116" data-palette-color="#89939e"><g class="undefined-text-0" data-fill-palette-color="primary" id="text-0"><path d="M20.65-18.45Q27.85-16.75 27.85-10.25L27.85-10.25Q27.85-4.7 23.93-2.35 20 0 13.1 0L13.1 0 1.7 0 1.7-34.8 11.9-34.8Q26.55-34.8 26.55-25.8L26.55-25.8Q26.55-22.8 24.88-20.98 23.2-19.15 20.65-18.45L20.65-18.45ZM12.8-27.9L11.8-27.9 11.8-21.3 12.9-21.3Q14.85-21.3 15.63-22.15 16.4-23 16.4-24.8L16.4-24.8Q16.4-27.9 12.8-27.9L12.8-27.9ZM13.2-7.15Q15.35-7.15 16.45-8.03 17.55-8.9 17.55-11L17.55-11Q17.55-12.95 16.57-13.93 15.6-14.9 13.5-14.9L13.5-14.9 11.8-14.9 11.8-7.15 13.2-7.15ZM44.35-35.8Q50.4-35.8 54.85-31.75L54.85-31.75 50.25-26.3Q48.9-27.4 47.67-27.98 46.45-28.55 45.05-28.55L45.05-28.55Q42.4-28.55 41.05-25.88 39.7-23.2 39.7-17.5L39.7-17.5Q39.7-11.8 41.05-9.2 42.4-6.6 45.1-6.6L45.1-6.6Q46.6-6.6 47.85-7.23 49.1-7.85 50.85-9.25L50.85-9.25 55.2-3.8Q53.15-1.65 50.4-0.33 47.65 1 44.35 1L44.35 1Q37.35 1 33.27-3.73 29.2-8.45 29.2-17.5L29.2-17.5Q29.2-23.3 31.1-27.43 33-31.55 36.42-33.68 39.85-35.8 44.35-35.8L44.35-35.8ZM83.15 0L73.05 0 73.05-14.1 66.84-14.1 66.84 0 56.75 0 56.75-34.8 66.84-34.8 66.84-21.85 73.05-21.85 73.05-34.8 83.15-34.8 83.15 0ZM113.69 0L103.29 0 102.14-6.85 95.14-6.85 93.99 0 83.74 0 92.74-34.8 104.74-34.8 113.69 0ZM98.59-27.75L96.29-13.85 100.94-13.85 98.59-27.75ZM114.24-34.8L124.34-34.8 124.34 0 114.24 0 114.24-34.8ZM153.84-34.8L153.84 0 141.44 0 135.19-25.85 135.34-24.65Q135.89-20.95 136.19-17.85 136.49-14.75 136.49-11L136.49-11 136.49 0 127.79 0 127.79-34.8 140.09-34.8 146.49-8.85 146.34-9.85Q145.74-13.8 145.44-16.65 145.14-19.5 145.14-23.35L145.14-23.35 145.14-34.8 153.84-34.8ZM167.94-34.8Q172.89-34.8 176.54-33.43 180.19-32.05 182.46-28.25 184.74-24.45 184.74-17.55L184.74-17.55Q184.74-7.85 180.36-3.93 175.99 0 168.39 0L168.39 0 157.28 0 157.28-34.8 167.94-34.8ZM169.09-27.7L167.39-27.7 167.39-7.15 168.99-7.15Q170.99-7.15 172.16-8.1 173.34-9.05 173.89-11.3 174.44-13.55 174.44-17.55L174.44-17.55Q174.44-21.5 173.86-23.73 173.28-25.95 172.14-26.83 170.99-27.7 169.09-27.7L169.09-27.7ZM187.38-34.8L208.58-34.8 207.58-27.8 197.48-27.8 197.48-21.05 206.38-21.05 206.38-14.25 197.48-14.25 197.48-7.1 208.28-7.1 208.28 0 187.38 0 187.38-34.8ZM226.93-34.8L236.98-34.8 229.43 0 216.23 0 208.08-34.8 218.43-34.8 222.93-7.1 226.93-34.8Z" fill="#ffffff" data-fill-palette-color="primary"></path></g></svg></g></svg></g></svg></g></svg></g><g transform="matrix(1,0,0,1,430.3046738548761,0)"><svg viewBox="0 0 16.41169135190006 85.48745410964727" height="85.48745410964727" width="16.41169135190006"><g><svg xmlns="http://www.w3.org/2000/svg" xmlns:xlink="http://www.w3.org/1999/xlink" version="1.1" x="0" y="0" viewBox="41.361000061035156 5 17.277999877929688 90" enable-background="new 0 0 100 100" xml:space="preserve" height="85.48745410964727" width="16.41169135190006" class="icon-icon-0" data-fill-palette-color="accent" id="icon-0"><g fill="#dedede" data-fill-palette-color="accent"><g fill="#dedede" data-fill-palette-color="accent"><g fill="#dedede" data-fill-palette-color="accent"><g fill="#dedede" data-fill-palette-color="accent"><path d="M50.002 37.844c2.934-0.007 5.314-2.385 5.316-5.324l0 0V13.637h0.006 3.313V32.52c-0.002 4.771-3.865 8.637-8.635 8.641l0 0V37.844L50.002 37.844z" fill="#ffffff" data-fill-palette-color="accent"></path></g><g fill="#dedede" data-fill-palette-color="accent"><path d="M41.365 54.914v-9.008h3.316v9.008c0.002 2.938 2.381 5.316 5.32 5.32l0 0v3.317C45.227 63.553 41.365 59.688 41.365 54.914L41.365 54.914z" fill="#ffffff" data-fill-palette-color="accent"></path></g><g fill="#dedede" data-fill-palette-color="accent"><path d="M50.002 82.631c2.934-0.008 5.314-2.385 5.316-5.322l0 0V68.3h0.006 3.313v9.009c-0.002 4.771-3.865 8.635-8.635 8.639l0 0V82.631L50.002 82.631z" fill="#ffffff" data-fill-palette-color="accent"></path></g></g><path d="M50.002 5c-4.771 0-8.637 3.865-8.637 8.637v16.08c0.883-1.209 2.01-2.224 3.316-2.973V13.637c0.002-2.936 2.381-5.317 5.32-5.32 2.935 0.003 5.313 2.385 5.315 5.32V32.52c-0.002 2.939-2.383 5.317-5.315 5.324-1.23-0.002-2.35-0.438-3.25-1.139v3.811c1.004 0.408 2.1 0.645 3.25 0.645 4.771-0.004 8.633-3.869 8.636-8.641V13.637C58.635 8.865 54.771 5 50.002 5z" fill="#ffffff" data-fill-palette-color="accent"></path><path d="M55.318 41.324v7.813c1.307 0.75 2.436 1.768 3.318 2.977V38.109C57.791 39.418 56.652 40.516 55.318 41.324zM41.365 36.03v18.886c0 4.77 3.865 8.637 8.637 8.637 1.15 0 2.244-0.234 3.248-0.645v-3.811c-0.902 0.7-2.018 1.137-3.248 1.139-2.939-0.006-5.318-2.385-5.32-5.32V36.03c0.002-2.94 2.381-5.317 5.32-5.321 1.422 0.002 2.707 0.57 3.662 1.48v-3.954c-1.117-0.526-2.348-0.842-3.662-0.842C45.23 27.394 41.365 31.258 41.365 36.03z" fill="#ffffff" data-fill-palette-color="accent"></path><path d="M41.361 80.82V95h3.318V80.82c0.006-2.941 2.383-5.318 5.32-5.322 1.424 0.001 2.707 0.568 3.664 1.48v-3.955c-1.117-0.525-2.349-0.842-3.664-0.842C45.229 72.182 41.365 76.047 41.361 80.82zM58.637 82.896c-0.846 1.307-1.982 2.401-3.313 3.211V95h3.315L58.637 82.896z" fill="#ffffff" data-fill-palette-color="accent"></path><path d="M41.365 60.506v13.999c0.883-1.208 2.01-2.225 3.316-2.974v-7.814C43.348 62.908 42.213 61.813 41.365 60.506zM50.002 49.786c-1.316 0-2.549 0.317-3.664 0.842v3.954c0.955-0.911 2.24-1.479 3.664-1.48 2.938 0.006 5.314 2.381 5.316 5.322v18.885c-0.002 2.938-2.379 5.314-5.316 5.322-1.23-0.003-2.35-0.439-3.25-1.139v3.811c1.004 0.408 2.1 0.645 3.25 0.645 4.771 0 8.633-3.868 8.635-8.639V58.424C58.635 53.652 54.771 49.786 50.002 49.786z" fill="#ffffff" data-fill-palette-color="accent"></path></g></g></svg></g></svg></g></svg></g><defs></defs></svg><rect width="395.52" height="75.69008096176817" fill="none" stroke="none" visibility="hidden"></rect></g></svg></g></svg>